<?xml version="1.0" encoding="UTF-8"?>
<svg version="1.1" viewBox="0 0 2000 2000" width="1280" height="1280" xmlns="http://www.w3.org/2000/svg">
<path transform="translate(546,179)" d="m0 0 932 1 6 9 14 25 10 17 17 29 15 26 17 29 15 26 14 24 15 26 14 24 17 29 15 26 17 29 16 28 9 15 15 26 17 29 15 26 28 48 15 26 14 24 15 26 13 22 15 26 17 29 15 26 14 24 15 26 17 29 15 26 14 24 9 16 2 5-8 16-15 26-17 29-30 52-10 17-14 24-15 26-14 24-17 29-15 26-16 27-13 23-10 17-11 19-17 29-15 26-14 24-17 29-30 52-10 17-14 24-15 26-14 24-17 29-15 26-11 19-10 17-14 24-15 26-28 48-10 17-5 8h-956l-10-16-30-52-56-96-15-26-10-17-14-24-15-26-14-24-15-26-16-27-16-28-10-17-14-24-15-26-14-24-15-26-13-22-15-26-16-27-9-16-28-48-15-26-17-29-15-26-16-27-16-28-15-26-10-17-12-21v-5l10-17 14-24 30-52 13-22 15-26 28-48 15-26 14-24 15-26 13-22 15-26 56-96 16-28 13-22 15-26 13-22 15-26 28-48 15-26 14-24 15-26 13-22 15-26 56-96 9-15 1-1zm65 403-33 1v847h193v-847l-22-1zm301 1v847h354l29-3 28-5 25-7 31-12 16-8 20-12 17-13 10-9 15-15 9-11 8-11 8-13 10-19 8-22 6-24 3-18 2-29v-13l-2-29-4-25-5-19-6-17-10-21-9-14-11-14-11-12-11-9-13-10-25-14-19-8-18-6-33-8h-2l3-3 20-12 14-11 12-11 8-8 7-8 10-14 6-10 10-22 6-19 5-25 2-18 1-17v-12l-2-27-4-25-5-19-7-19-10-20-11-16-9-10-12-12-15-11-21-13-23-11-20-7-25-7-29-6-31-3-18-1z"/>
<path transform="translate(1105,1081)" d="m0 0h71l35 3 22 4 20 7 16 9 10 8 9 9 10 16 5 14 3 16 1 8v22l-3 16-6 16-8 12-6 7-10 8-16 9-14 6-19 5-19 3-12 1-25 1h-63l-1-1z" fill="#010101"/>
<path transform="translate(1105,732)" d="m0 0h32l24 2 21 4 17 6 12 6 12 9 5 4 10 13 5 10 4 12 1 5v28l-2 14-5 17-9 16-11 11-11 7-15 7-20 6-26 4-25 2h-19z" fill="#010101"/>
</svg>
