<?xml version="1.0" encoding="UTF-8"?>
<svg version="1.1" viewBox="0 0 2048 819" width="220" height="80" xmlns="http://www.w3.org/2000/svg">
<path transform="translate(154,218)" d="m0 0h198l4 5 13 23 16 27 16 28 14 24 15 26 13 22 7 12v6l-15 26-13 23-13 22-15 26-9 15-16 28-12 20-5 7h-198l-6-8-12-21-13-22-15-26-28-48-12-21-13-23 1-5 12-20 14-24 15-26 13-22 10-17 16-28 16-27zm11 83-1 176 1 1h40v-177zm69 0v177h73l15-2 15-6 9-7 7-8 5-13 1-5v-18l-4-14-7-10-9-6-8-3-7-2 8-7 6-7 3-5 3-16v-8l-4-16-5-8-9-8-11-5-16-3z" fill="#FEFEFE"/>
<path transform="translate(1034,269)" d="m0 0h66l18 2 13 5 9 6 7 8 5 10 2 10v17l-2 9-6 11-5 6-7 4h-2l3 3 17 8 10 9 8 16 2 8v16l-3 11-6 11-9 10-10 7-14 5-15 2-39 1h-39l-3-1-1-9v-184zm44 34v42h14l11-3 6-7 2-4 1-7-2-9-4-6-6-4-9-2zm0 80v46l6 1h13l12-2 8-4 6-7 2-5v-9l-4-10-5-5-6-3-17-2z" fill="#FEFEFE"/>
<path transform="translate(1465,339)" d="m0 0h12l15 3 11 7 5 2 3-9h39l2 2v127l-2 13-4 11-7 11-7 7-11 7-13 5-15 3h-31l-16-4-14-7-12-11-6-9 1-4 16-9 11-6h5l10 8 9 4 4 1h16l11-4 7-6 4-6 2-10v-6l-6 1-12 5-15 3h-10l-12-2-13-5-9-6-9-9-8-13-4-10-2-8v-24l5-16 7-12 8-9 11-8 9-4zm13 35-9 3-9 7-5 9-1 4v12l3 8 6 8 5 4 5 2 13 1 11-4 8-7 5-10 1-12-4-11-7-8-10-5z" fill="#FEFEFE"/>
<path transform="translate(1626,339)" d="m0 0h12l15 3 15 9 3 1 2-10h38l2 2v129l-2 13-8 16-7 9-10 7-11 5-15 4-6 1h-30l-16-4-10-4-9-7-9-9-4-7 1-4 22-12 4-3 7 1 8 7 9 4 4 1h16l11-4 6-4 6-10 2-15-16 6-12 3-13 1-16-2-12-5-11-7-8-9-8-14-4-12-1-5v-21l4-15 7-13 9-10 10-8 13-6zm13 35-9 3-10 9-3 5-2 12 2 11 6 9 7 6 10 3h8l11-4 7-6 5-8 1-3v-15l-5-10-7-7-8-4z" fill="#FEFEFE"/>
<path transform="translate(1319,339)" d="m0 0h15l17 3 12 5 12 8 11 11 6 10 5 12 2 13-1 14-5 15-7 10-9 10-10 7-10 5-18 4-9 1h-16l-18-4-16-8-12-10-7-10-6-12-3-15v-10l2-10 5-13 9-13 9-8 14-8 10-4zm2 35-9 3-8 6-6 10-1 4v12l4 10 8 9 7 3 5 1h8l11-4 7-5 4-7 2-6 1-9-3-12-6-8-8-5-9-2z" fill="#FEFEFE"/>
<path transform="translate(869,339)" d="m0 0h16l20 4 14 7 9 7 10 10 7 12 4 16v18l-3 12-6 11-8 10-9 8-16 8-17 4-10 1h-13l-14-2-13-5-14-9-9-9-7-11-5-14-1-6v-15l3-13 8-16 7-8 14-10 13-6 12-3zm2 35-10 4-6 5-6 12-1 4v9l4 11 5 7 8 4 9 2 10-1 9-4 7-6 4-9 1-5v-7l-3-10-6-9-8-5-8-2z" fill="#FEFEFE"/>
<path transform="translate(639,339)" d="m0 0h12l15 3 14 7 10 9 6 8 2 13v84h-41l-1-1-1-73-3-7-6-7-7-3h-9l-9 4-7 7-3 6-1 23-1 51h-41l-1-13v-97l1-10 40-1 1 3v8l10-5 10-6z" fill="#FEFEFE"/>
<path transform="translate(1793,339)" d="m0 0h15l15 3 10 4 11 8 8 8 7 12 4 14 1 10v10l-2 1h-87l3 10 6 8 5 4 7 2h16l12-6 6-5 9 1 16 8 5 3v6l-7 8-14 10-12 5-13 3-8 1h-15l-17-4-12-6-10-8-8-9-7-12-4-11-1-5v-16l3-12 4-10 8-11 9-9 14-9 11-4zm1 27-8 3-7 7-3 7 3 3h43l1-5-6-9-5-4-5-2z" fill="#FEFEFE"/>
<path transform="translate(772,257)" d="m0 0h13l15 3 12 6-1 7-10 22h-23l-2 6-1 7-1 34h13l14 1v30l-1 1h-27l1 17v23l-1 49h-40l-1-1-1-88h-16l-1-10v-20l1-1 16-1v-15l1-25 5-15 4-8 6-8 7-7 10-5z" fill="#FEFEFE"/>
<path transform="translate(496,269)" d="m0 0h42l1 1 1 192-1 1h-43l-1-2v-191z" fill="#FEFEFE"/>
<path transform="translate(1192,260)" d="m0 0h39l3 1-1 201-1 1h-39l-1-1-1-77v-124z" fill="#FEFEFE"/>
<path transform="translate(1960,339)" d="m0 0 13 1 16 4-2 9-12 26-2 2-5-1-8-4-11-1-9 3-6 4-5 7-2 8-1 65-1 1h-40l-1-3v-117l1-1 40 1 1 14 6-3 8-7 8-5z" fill="#FEFEFE"/>
<path transform="translate(276,405)" d="m0 0 23 1 9 3 5 5 4 9v8l-3 6-6 5-7 3-13 2h-12l-1-2v-39z" fill="#FEFEFE"/>
<path transform="translate(276,333)" d="m0 0h10l10 3 7 6 2 5v7l-4 8-6 5-11 3h-8l-1-2v-34z" fill="#FEFEFE"/>
</svg>
