<?xml version="1.0" encoding="UTF-8"?>
<svg version="1.1" viewBox="0 0 2048 819" width="220" height="80" xmlns="http://www.w3.org/2000/svg">
<path transform="translate(159,232)" d="m0 0h177l5 5 9 17 15 25 16 28 10 17 14 24 17 29 4 7-1 6-7 11-14 25-13 22-11 19-10 17-14 24-13 22-6 9-24 1h-154l-4-4-15-26-13-22-30-52-28-48 1-7 8-13 13-22 15-26 10-17 15-26 12-21 12-20zm10 75-1 1v158l1 1h34l1-1v-159zm62 1-1 25v131l1 2 11 1h46l17-1 13-4 10-6 8-8 5-10 2-12v-10l-2-11-5-9-7-7-14-7h-2l3-5 8-7 4-10 1-5v-16l-4-12-7-9-7-5-12-4-6-1z"/>
<path transform="translate(1011,268)" d="m0 0 65 1 17 2 12 4 10 6 8 8 5 10 3 16-1 14-5 14-6 8-3 3-8 4 9 4 11 6 9 8 7 11 3 11 1 7v8l-3 15-7 13-8 9-9 6-15 5-15 2-32 1h-47l-2-1-1-57v-89l1-47zm43 35v42h14l11-4 5-4 3-7v-12l-3-7-4-4-7-3-6-1zm0 80v45l3 2h16l12-2 8-4 6-7 2-7v-7l-3-9-5-5-8-4-10-2z"/>
<path transform="translate(1440,339)" d="m0 0h13l15 3 16 9 2 1 2-10 39 1 1 1v126l-2 15-5 12-6 9-9 9-16 8-15 4-21 2-15-1-17-4-14-7-10-9-7-10v-5l23-12 5-3h5l7 7 10 5 9 2h8l11-3 10-6 5-8 3-11v-6l-16 6-13 3h-23l-13-4-11-6-6-5-8-10-8-16-3-11v-21l4-16 8-15 9-10 10-7 12-5zm13 35-8 3-9 7-4 7-2 10 1 10 4 9 6 7 9 4 4 1h9l11-4 8-7 4-8 1-3v-13l-4-9-7-8-6-4-8-2z"/>
<path transform="translate(1602,339)" d="m0 0h12l15 3 13 8 5 2 1-9 2-1 38 1 1 1v129l-3 16-6 12-9 10-9 7-13 6-19 4h-31l-16-4-12-6-11-9-8-11-1-5 16-8 13-7 5 1 9 7 8 4 10 2 13-1 10-4 5-4 5-8 4-17-20 7-10 2h-21l-15-4-12-7-10-10-6-10-5-11-3-12v-19l4-15 7-14 9-10 8-7 13-6zm13 35-9 3-10 9-4 9-1 5v7l4 11 4 6 6 5 10 3h10l10-4 8-7 4-8 1-3v-13l-4-10-6-7-10-5z"/>
<path transform="translate(846,339)" d="m0 0h15l17 3 16 7 12 9 9 10 8 16 3 14v10l-3 15-7 14-11 12-7 6-14 7-16 4-7 1h-21l-14-3-12-5-11-7-11-11-8-14-3-9-1-6v-17l3-12 8-16 8-9 13-9 13-6 12-3zm3 35-10 3-7 5-6 10-2 10 1 10 4 8 7 8 12 4h10l10-4 7-6 5-10 1-11-2-10-6-9-10-6-10-2z"/>
<path transform="translate(1294,339)" d="m0 0h17l15 3 13 5 11 7 10 9 9 14 4 12 1 6v18l-4 15-8 13-7 8-10 7-12 6-16 4-7 1h-21l-15-3-11-5-10-6-7-6-9-12-5-11-3-13v-17l3-12 6-12 9-10 9-8 15-8 15-4zm3 35-11 4-7 6-4 7-2 10 1 10 4 9 6 7 8 4 5 1h9l11-4 8-7 4-8 1-4v-11l-3-9-6-8-8-5-9-2z"/>
<path transform="translate(615,339)" d="m0 0h13l14 3 10 4 12 9 7 9 2 5 1 6v88h-41l-1-8-1-66-5-10-7-6-4-1h-8l-10 4-8 8-2 4-1 74-1 1h-40l-1-1v-119l1-1h38l2 1 1 10 7-3 10-7z"/>
<path transform="translate(1767,339)" d="m0 0h18l14 3 16 8 8 6 9 12 5 12 3 11 1 7v8l-2 2-7 1h-81l4 12 4 6 10 5 3 1h16l12-5 6-6 8 1 16 8 6 4-1 6-4 5-11 9-16 8-18 4h-21l-16-4-11-6-10-8-8-9-7-12-4-12-1-6v-14l4-15 6-12 9-10 10-9 16-8zm3 27-8 3-7 8-2 4 1 4 1 1h41l4-2-6-11-6-5-5-2z"/>
<path transform="translate(748,257)" d="m0 0h13l14 3 12 5 2 2-1 5-10 21-2 2h-19l-4 2-2 10-1 35 27 1v31h-27v88l-1 1h-41l-1-88h-14l-2-1v-31l15-1 1-1 1-29 2-17 5-12 6-10 9-9 10-5z"/>
<path transform="translate(472,268)" d="m0 0 43 1 1 1v192l-1 1h-43l-1-5v-177z"/>
<path transform="translate(1168,260)" d="m0 0 41 1v201l-1 1h-40l-1-8v-160z"/>
<path transform="translate(1935,339)" d="m0 0 16 1 13 4 1 4-11 25-4 8-5-1-10-4h-14l-9 5-7 8-1 3-1 11-1 59-1 1h-40l-1-97v-23l1-1h39l2 2v13l10-6 10-8 7-3z"/>
<path transform="translate(268,401)" d="m0 0h12l14 2 7 5 4 8v9l-6 9-6 3-18 2h-6l-2-2v-35z"/>
<path transform="translate(273,336)" d="m0 0 9 1 9 5 3 6v9l-4 6-7 5-7 2h-7l-2-3v-27l3-3z"/>
</svg>
